# xmcd
#
# Track frame offsets:
#	150
#	18467
#	50620
#	77690
#	116095
#	143492
#	169534
#	218507
#
# Disc length: 3329 seconds
# Revision: 0
# Processed by: cddbd v1.5.2PL0 Copyright (c) Steve Scherf et al.
# Submitted via: dBpowerAMP V12.0
#
DISCID=600cff08
DTITLE=Metallica - Donnington
DYEAR=1995
DGENRE=Thrash Metal
TTITLE0=Master of Puppets
TTITLE1=Wherever I May Roam
TTITLE2=2 x 4
TTITLE3=Harvester of Sorrow
TTITLE4=Nothing Else Matters
TTITLE5=Sad but True
TTITLE6=One
TTITLE7=Enter Sandman
EXTD=
EXTT0=
EXTT1=
EXTT2=
EXTT3=
EXTT4=
EXTT5=
EXTT6=
EXTT7=
PLAYORDER=
